<?xml version="1.0" encoding="utf-8"?>
<svg xmlns="http://www.w3.org/2000/svg" viewBox="-5 0 360 360" class="css-1j8o68f" xmlns:bx="https://boxy-svg.com">
  <defs id="SvgjsDefs3641">
    <bx:grid x="-4.921" y="0" width="89.543" height="90.158"/>
  </defs>
  <rect x="-5" y="0" width="360" height="360" style="fill: #f6f6f6;"/>
  <g transform="matrix(1, 0, 0, 1, 0.000015, -1.43325)">
    <g id="SvgjsG3642" featurekey="symbolGroupContainer" transform="matrix(1.971456, 0, 0, 1.971456, 76.427201, 45.164895)" fill="#236B23" style="">
      <circle xmlns="http://www.w3.org/2000/svg" cx="50" cy="50" r="50"/>
    </g>
    <g id="SvgjsG3643" featurekey="DUScZC-0" transform="matrix(1.511452, 0, 0, 1.511452, 99.426652, 68.605279)" fill="#f6f6f6" style="">
      <g xmlns="http://www.w3.org/2000/svg">
        <polygon points="54.793,78.123 51.608,78.794 50,80.585 48.392,78.794 45.207,78.123 47.983,79.872 49.993,82.42 49.993,82.438    50,82.429 50.008,82.438 50.008,82.42 52.019,79.872  "/>
        <g>
          <polygon points="17.006,12.151 16.89,11.021 17.784,9.721 11.044,11.155 15.829,11.307   "/>
          <polygon points="21.496,15.373 38.653,38.009 45.777,25.755 45.194,25.008 48.002,26.006 50.008,27.619 51.999,26.006     54.807,25.008 54.224,25.755 61.348,38.009 78.506,15.373 82.447,12.544 81.847,10.946 80.248,9.302 79.748,9.195 68.612,11.873     68.308,12.114 71.956,14.531 74.148,16.912 74.871,19.774 73.064,17.574 70.992,15.466 67.096,13.067 59.366,19.163 59.251,19.31     64.235,22.033 66.687,24.122 67.49,27.417 65.652,24.926 63.303,23.179 58.091,20.797 55.541,24.066 50,25.558 44.46,24.066     41.911,20.797 36.698,23.179 34.348,24.926 32.511,27.417 33.315,24.122 35.766,22.033 40.75,19.31 40.636,19.163 32.903,13.067     29.009,15.466 26.938,17.574 25.129,19.774 25.852,16.912 28.045,14.531 31.694,12.114 31.389,11.873 20.253,9.195 19.753,9.302     18.154,10.946 17.553,12.544   "/>
          <polygon points="82.994,12.151 84.172,11.307 88.957,11.155 82.217,9.721 83.111,11.021   "/>
          <path d="M92.968,61.819l-1.201-0.563l-0.694-0.979l0.881,0.542l0.966,0.258l0.098-6.999l0.015-0.295l-1.623-0.758l-1.021-1.184    l1.457,0.803l1.235,0.242l0.35-6.729l-1.948-0.344l-1.094-0.962l1.433,0.336l1.663-0.068l0.35-6.708l-2.279-0.402l-1.566-1.071    l1.878,0.251l2.034-0.084l0.411-7.9h-2.716l-2.229-1.203l1.987,0.299l3.028-0.45l0.16-3.104l-1.402-6.608l-1.516,1.336    l-3.564,1.797l2.756-2.853l1.723-2.242l-2.435-4.341l-5.414,0.604l-5.52,4.773L63.292,40.04l8.163-5.578l1.183-1.023l0.22,0.12    l-2.64,5.063l-1.221,1.909l-3.844,2.873l-0.992,4.215l-3.057,3.728l-0.819,2.685l0.618-1.173l0.979,0.527l1.858-0.232l1.419-2.063    l0.413-1.651l-1.176,0.451l-0.365,0.164l1.284-2.231l0.593-2.419l1.098,7.718L59.854,69.15l-4.09,11.76l4.244-14.855l-1.269-6.485    l1.061-4.426l-2.557,4.463l0.987,6.14l-2.705,15.849l-0.148,0.425l-2.304,1.436L50,83.662l-3.073-0.207l-2.304-1.436l-0.147-0.425    l-2.707-15.849l0.987-6.14L40.2,55.144l1.062,4.426l-1.269,6.485l4.244,14.855l-4.09-11.76l-7.152-16.029l1.099-7.718l0.592,2.419    l1.284,2.231l-0.366-0.164l-1.175-0.451l0.412,1.651l1.42,2.063l1.858,0.232l0.979-0.527l0.619,1.173l-0.82-2.685l-3.057-3.728    l-0.994-4.215l-3.842-2.873l-1.221-1.909l-2.64-5.063l0.22-0.12l1.183,1.023l8.162,5.578L20.833,17.212l-5.519-4.773l-5.415-0.604    l-2.434,4.341l1.722,2.242l2.756,2.853l-3.565-1.797l-1.514-1.336l-1.404,6.608l0.161,3.104l3.028,0.45l1.989-0.299l-2.229,1.203    H5.691l0.41,7.9l2.035,0.084l1.878-0.251l-1.565,1.071L6.17,38.411l0.349,6.708l1.663,0.068l1.432-0.336l-1.093,0.962    l-1.948,0.344l0.35,6.729l1.236-0.242l1.456-0.803l-1.021,1.184L6.97,53.783l0.015,0.295l0.097,6.999l0.966-0.258l0.882-0.542    l-0.696,0.979l-1.201,0.563l-1.948,2.096l0.132,2.874l3.49-2.639l3.72-24.245l5.518-11.746l5.085,1.528l2.825,2.445l-1.394,0.645    l5.296,9.242l3.388,2.171l-2.522,9.564l8.483,15.781l6.332,17.241l2.169,3.231l2.385,0.789v0.007L50,90.8l0.008,0.005v-0.007    l2.384-0.789l2.17-3.231l6.33-17.241l8.484-15.781l-2.522-9.564l3.39-2.171l5.296-9.242l-1.395-0.645l2.825-2.445l5.086-1.528    l5.518,11.746l3.719,24.245l3.491,2.639l0.132-2.874L92.968,61.819z M53.809,86.532l-2.304,2.117L50,88.863l-1.504-0.214    l-2.303-2.117l-1.551-4.461l2.13,2.213l3.222,0.933v0.005L50,85.219l0.008,0.003v-0.005l3.221-0.933l2.13-2.213L53.809,86.532z"/>
        </g>
      </g>
    </g>
    <g id="SvgjsG3644" featurekey="MdC7pD-0" transform="matrix(2.270766, 0, 0, 2.270766, 35.302476, 245.050724)" fill="#236B23" style="">
      <path d="M0.7 19.34 l0.92 -4.36 l0.2 0.06 l2.6 4.52 c0.6 0.18 1.08 0.24 1.62 0.24 c2 0 3.22 -1.12 3.22 -2.7 c0 -1.24 -0.64 -1.94 -2.08 -2.44 l-2.9 -0.96 c-2.36 -0.8 -3.3 -2.28 -3.3 -4.04 c0 -2.6 2.36 -3.94 5.2 -3.94 c1.7 0 3.42 0.32 5.28 0.84 l-0.9 4.06 l-0.16 0 l-2.36 -4.18 c-0.58 -0.18 -1.06 -0.26 -1.68 -0.26 c-1.7 0 -2.88 0.9 -2.88 2.22 c0 1.04 0.48 1.68 1.98 2.2 l2.84 0.96 c2.52 0.88 3.78 2.1 3.78 4.04 c0 3.1 -2.78 4.68 -5.8 4.68 c-1.48 0 -3.3 -0.3 -5.58 -0.94 z M30.299999999999997 18.86 l1.14 0.98 l0 0.16 l-5.5 0 l0 -0.16 l1.16 -0.98 l0 -6.06 c0 -1.2 -0.46 -1.9 -1.6 -1.9 c-0.68 0 -1.26 0.36 -1.72 0.96 c0.06 0.3 0.1 0.62 0.1 0.98 l0 6.02 l1.16 0.98 l0 0.16 l-5.5 0 l0 -0.16 l1.14 -0.98 l0 -6.04 c0 -1.22 -0.46 -1.92 -1.58 -1.92 c-0.62 -0.02 -1.16 0.3 -1.6 0.86 l0 7.1 l1.14 0.98 l0 0.16 l-5.5 0 l0 -0.16 l1.16 -0.98 l0 -7.88 l-1.16 -0.94 l0 -0.16 l3.86 0 l0.48 1.44 c0.68 -0.9 1.72 -1.68 3.3 -1.68 c1.5 0 2.5 0.68 2.9 1.86 c0.66 -0.98 1.72 -1.86 3.5 -1.86 c2.02 0 3.12 1.14 3.12 3.18 l0 6.04 z M42.64 18.52 l0.26 0.14 c-0.4 1.02 -1.16 1.58 -2.36 1.58 c-1.28 0 -2 -0.7 -2.16 -1.58 c-0.84 1.06 -1.94 1.58 -3.16 1.58 c-1.12 0 -3.04 -0.56 -3.04 -2.82 c0 -1.82 1.44 -2.7 3.04 -3.18 c1.1 -0.32 2.26 -0.6 3.14 -0.78 l0 -1.66 c0 -1.2 -0.44 -1.74 -1.36 -1.74 c-0.22 0 -0.44 0.02 -0.74 0.12 l-2.28 3.32 l-0.16 0 l-1.16 -2.98 c1.44 -0.58 2.94 -0.88 4.88 -0.88 c2.8 0 4.02 1.22 4.02 2.82 l0 5.58 c0 0.68 0.14 0.94 0.46 0.94 c0.24 0 0.42 -0.12 0.62 -0.46 z M36.919999999999995 18.98 c0.52 0 0.98 -0.24 1.44 -0.8 l0 -4.38 c-0.48 0.14 -0.96 0.34 -1.36 0.48 c-1.1 0.46 -1.64 1.36 -1.64 2.56 c0 1.42 0.7 2.14 1.56 2.14 z M50.44 9.64 c0.66 0 1.26 0.16 1.62 0.4 l-1.18 3.3 l-0.16 0 l-1.82 -2.34 c-0.5 0.18 -0.92 0.6 -1.24 1.16 l0 6.7 l1.64 0.98 l0 0.16 l-6 0 l0 -0.16 l1.16 -0.98 l0 -7.84 l-1.16 -0.98 l0 -0.16 l3.86 0 l0.48 1.74 c0.62 -1.12 1.58 -1.98 2.8 -1.98 z M59.3 10.3 l-2.74 0 l0 7.28 c0 0.9 0.46 1.34 1.1 1.34 c0.58 0 0.96 -0.3 1.26 -0.78 l0.28 0.12 c-0.4 1.06 -1.46 1.98 -3 1.98 c-1.94 0 -2.84 -1.06 -2.84 -2.54 l0 -7.4 l-1.4 0 l0 -0.42 l1.4 0 l3.04 -3.06 l0.16 0 l0 3.06 l2.74 0 l0 0.42 z M64.56 20 l0 -0.16 l1.36 -1.18 l0 -11.32 l-1.36 -1.18 l0 -0.16 l7.04 0 c3.4 0 5.38 1.28 5.38 3.64 c0 2.12 -1.66 3.52 -4.52 3.78 l2.16 0.4 l2.72 4.84 l1.24 1.18 l0 0.16 l-4.22 0 l-3.4 -6.4 l-1.66 0 l0 5.06 l1.34 1.18 l0 0.16 l-6.08 0 z M69.3 13.14 l1.44 0 c1.68 0 2.72 -1.24 2.72 -3.36 c0 -2.08 -1.18 -3.32 -2.76 -3.32 l-1.4 0 l0 6.68 z M89.34 18.52 l0.26 0.14 c-0.4 1.02 -1.16 1.58 -2.36 1.58 c-1.28 0 -2 -0.7 -2.16 -1.58 c-0.84 1.06 -1.94 1.58 -3.16 1.58 c-1.12 0 -3.04 -0.56 -3.04 -2.82 c0 -1.82 1.44 -2.7 3.04 -3.18 c1.1 -0.32 2.26 -0.6 3.14 -0.78 l0 -1.66 c0 -1.2 -0.44 -1.74 -1.36 -1.74 c-0.22 0 -0.44 0.02 -0.74 0.12 l-2.28 3.32 l-0.16 0 l-1.16 -2.98 c1.44 -0.58 2.94 -0.88 4.88 -0.88 c2.8 0 4.02 1.22 4.02 2.82 l0 5.58 c0 0.68 0.14 0.94 0.46 0.94 c0.24 0 0.42 -0.12 0.62 -0.46 z M83.62 18.98 c0.52 0 0.98 -0.24 1.44 -0.8 l0 -4.38 c-0.48 0.14 -0.96 0.34 -1.36 0.48 c-1.1 0.46 -1.64 1.36 -1.64 2.56 c0 1.42 0.7 2.14 1.56 2.14 z M107.16000000000001 18.86 l1.14 0.98 l0 0.16 l-5.5 0 l0 -0.16 l1.16 -0.98 l0 -6.06 c0 -1.2 -0.46 -1.9 -1.6 -1.9 c-0.68 0 -1.26 0.36 -1.72 0.96 c0.06 0.3 0.1 0.62 0.1 0.98 l0 6.02 l1.16 0.98 l0 0.16 l-5.5 0 l0 -0.16 l1.14 -0.98 l0 -6.04 c0 -1.22 -0.46 -1.92 -1.58 -1.92 c-0.62 -0.02 -1.16 0.3 -1.6 0.86 l0 7.1 l1.14 0.98 l0 0.16 l-5.5 0 l0 -0.16 l1.16 -0.98 l0 -7.88 l-1.16 -0.94 l0 -0.16 l3.86 0 l0.48 1.44 c0.68 -0.9 1.72 -1.68 3.3 -1.68 c1.5 0 2.5 0.68 2.9 1.86 c0.66 -0.98 1.72 -1.86 3.5 -1.86 c2.02 0 3.12 1.14 3.12 3.18 l0 6.04 z M109.28 6 l2.8 0 l0 0.16 l-1.32 5.12 l-0.16 0 l-1.32 -5.12 l0 -0.16 z M120.78000000000002 13.26 l-1.96 -3.08 c-0.38 -0.08 -0.6 -0.12 -0.9 -0.12 c-1.14 0 -1.96 0.56 -1.96 1.38 c0 0.66 0.36 1.1 1.46 1.48 l2.04 0.7 c1.78 0.6 2.88 1.42 2.88 3.08 c0 2.26 -2.16 3.54 -4.52 3.54 c-1.36 0 -2.76 -0.26 -4.32 -0.76 l0.94 -3.34 l0.16 0 l1.9 3.46 c0.46 0.16 0.8 0.2 1.14 0.2 c1.4 0 2.26 -0.68 2.26 -1.64 c0 -0.84 -0.5 -1.3 -1.54 -1.68 l-2 -0.72 c-1.88 -0.68 -2.62 -1.74 -2.62 -3.14 c0 -1.94 1.8 -2.98 4.04 -2.98 c1.4 0 2.64 0.2 4.24 0.64 l-1.08 2.98 l-0.16 0 z"/>
    </g>
    <g id="SvgjsG3645" featurekey="Pp8M4q-0" transform="matrix(1.029956, 0, 0, 1.029956, 36.856133, 297.565648)" fill="#236B23" style="">
      <path d="M1.7383 4.901999999999999 l2.8809 0 q2.490234375 0 3.349609375 0.21484375 q1.25 0.3125 2.03125 1.259765625 t0.78125 2.3926 q0 1.435546875 -0.7666015625 2.377929688 t-2.1143 1.2646 q-0.986328125 0.234375 -3.681640625 0.234375 l-1.0352 0 l0 6.7383 l-1.4453 0 l0 -14.482 z M3.1836 6.308999999999999 l0 4.9219 l2.4609 0.029297 q1.474609375 0 2.163085938 -0.2685546875 t1.084 -0.87891 t0.39551 -1.3428 q0 -0.7421875 -0.3955078125 -1.34765625 t-1.04 -0.85938 t-2.1094 -0.25391 l-2.5586 0 z M25.498065625 4.901999999999999 l6.748 14.482 l-1.543 0 l-2.2754 -4.7754 l-6.25 0 l-2.2559 4.7754 l-1.6211 0 l6.8457 -14.482 l0.35156 0 z M25.322265625 7.968999999999999 l-2.5 5.2539 l4.9609 0 z M41.88471875 4.901999999999999 l1.4551 0 l0 13.086 l5.5664 0 l0 1.3965 l-7.0215 0 l0 -14.482 z M58.3789375 4.941000000000001 l1.4453 0 l0 14.482 l-1.4453 0 l0 -14.482 z M70.537096875 19.42383 l0 -14.482 l0.3125 0 l9.6289 11.084 l0 -11.084 l1.4258 0 l0 14.482 l-0.33203 0 l-9.5313 -10.947 l0 10.947 l-1.5039 0 z M92.812453125 19.38477 l0 -14.482 l2.998 0 q3.251953125 0 4.7265625 0.52734375 q2.099609375 0.732421875 3.286132813 2.553710938 t1.1865 4.3408 q0 2.16796875 -0.9423828125 3.828125 t-2.4414 2.4463 t-4.2041 0.78613 l-4.6094 0 z M94.199253125 18.0078 l1.6699 0 q2.998046875 0 4.169921875 -0.37109375 q1.630859375 -0.52734375 2.568359375 -1.909179688 t0.9375 -3.3838 q0 -2.099609375 -1.010742188 -3.583984375 t-2.8271 -2.0313 q-1.3671875 -0.419921875 -4.482421875 -0.419921875 l-1.0254 0 l0 11.699 z M115.273465625 4.941000000000001 l2.8809 0 q2.412109375 0 3.271484375 0.1953125 q1.2890625 0.29296875 2.099609375 1.264648438 t0.81055 2.3877 q0 1.19140625 -0.556640625 2.080078125 t-1.5967 1.3525 t-1.8018 0.46387 l4.1504 6.7383 l-1.7773 0 l-4.1504 -6.7383 l-1.8848 0 l0 6.7383 l-1.4453 0 l0 -14.482 z M116.718765625 6.356999999999999 l0 4.9219 l2.4902 0.019531 q1.4453125 0 2.143554688 -0.2734375 t1.084 -0.87891 t0.38574 -1.3574 q0 -0.72265625 -0.3955078125 -1.318359375 t-1.0303 -0.85449 t-2.1289 -0.25879 l-2.5488 0 z M141.72850625 4.686999999999999 q3.28125 0 5.493164063 2.197265625 t2.2119 5.4102 q0 3.173828125 -2.20703125 5.21484375 t-5.3809 2.041 q-3.22265625 0 -5.439453125 -2.202148438 t-2.2168 -4.9854 q0 -2.080078125 1.005859375 -3.8671875 t2.7539 -2.7979 t3.7793 -1.0107 z M141.78710625 6.1129999999999995 q-1.6015625 0 -3.041992188 0.8349609375 t-2.2412 2.2559 t-0.80078 3.1592 q0 2.578125 1.782226563 4.1796875 t4.3018 1.6016 q1.6796875 0 3.115234375 -0.8203125 t2.2363 -2.2314 t0.80078 -2.7979 q0 -1.71875 -0.80078125 -3.115234375 t-2.2559 -2.2314 t-3.0957 -0.83496 z M159.06255 19.42383 l2.0605 -14.482 l0.23438 0 l5.8887 11.875 l5.8203 -11.875 l0.23438 0 l2.0898 14.482 l-1.4355 0 l-1.416 -10.361 l-5.1172 10.361 l-0.37109 0 l-5.1855 -10.43 l-1.4063 10.43 l-1.3965 0 z M185.634753125 4.941000000000001 l8.3008 0 l0 1.4258 l-6.8555 0 l0 4.5313 l4.1797 0 l0 1.4063 l-4.1797 0 l0 5.6836 l6.7969 0 l0 1.4355 l-8.2422 0 l0 -14.482 z M221.787128125 4.901999999999999 l6.748 14.482 l-1.543 0 l-2.2754 -4.7754 l-6.25 0 l-2.2559 4.7754 l-1.6211 0 l6.8457 -14.482 l0.35156 0 z M221.611328125 7.968999999999999 l-2.5 5.2539 l4.9609 0 z M238.16408125 4.901999999999999 l2.8809 0 q2.490234375 0 3.349609375 0.21484375 q1.25 0.3125 2.03125 1.259765625 t0.78125 2.3926 q0 1.435546875 -0.7666015625 2.377929688 t-2.1143 1.2646 q-0.986328125 0.234375 -3.681640625 0.234375 l-1.0352 0 l0 6.7383 l-1.4453 0 l0 -14.482 z M239.60938125 6.308999999999999 l0 4.9219 l2.4609 0.029297 q1.474609375 0 2.163085938 -0.2685546875 t1.084 -0.87891 t0.39551 -1.3428 q0 -0.7421875 -0.3955078125 -1.34765625 t-1.04 -0.85938 t-2.1094 -0.25391 l-2.5586 0 z M257.470721875 4.901999999999999 l2.8809 0 q2.490234375 0 3.349609375 0.21484375 q1.25 0.3125 2.03125 1.259765625 t0.78125 2.3926 q0 1.435546875 -0.7666015625 2.377929688 t-2.1143 1.2646 q-0.986328125 0.234375 -3.681640625 0.234375 l-1.0352 0 l0 6.7383 l-1.4453 0 l0 -14.482 z M258.916021875 6.308999999999999 l0 4.9219 l2.4609 0.029297 q1.474609375 0 2.163085938 -0.2685546875 t1.084 -0.87891 t0.39551 -1.3428 q0 -0.7421875 -0.3955078125 -1.34765625 t-1.04 -0.85938 t-2.1094 -0.25391 l-2.5586 0 z"/>
    </g>
  </g>
</svg>